<svg width="40" height="40" viewBox="0 0 40 40" fill="none" xmlns="http://www.w3.org/2000/svg">
<path d="M20 1C20.5525 1 21.0315 1.38255 21.1533 1.9209L23.0762 10.4375C23.1477 10.7544 23.3688 11.0173 23.6689 11.1416C23.9691 11.2659 24.3113 11.2359 24.5859 11.0625L31.9688 6.40137C32.4359 6.10657 33.0442 6.17503 33.4346 6.56543C33.825 6.95583 33.8934 7.56411 33.5986 8.03125L28.9365 15.4131C28.7631 15.6878 28.7341 16.0299 28.8584 16.3301C28.9827 16.6301 29.2447 16.8513 29.5615 16.9229L38.0791 18.8467C38.6175 18.9685 39 19.4475 39 20C39 20.5525 38.6175 21.0315 38.0791 21.1533L29.5615 23.0762C29.2448 23.1477 28.9828 23.369 28.8584 23.6689C28.7341 23.9691 28.7631 24.3113 28.9365 24.5859L33.5986 31.9688C33.8934 32.4359 33.825 33.0442 33.4346 33.4346C33.0442 33.825 32.4359 33.8934 31.9688 33.5986L24.5859 28.9365C24.3113 28.7631 23.9691 28.7341 23.6689 28.8584C23.369 28.9828 23.1477 29.2448 23.0762 29.5615L21.1533 38.0791C21.0315 38.6175 20.5525 39 20 39C19.4475 39 18.9685 38.6175 18.8467 38.0791L16.9229 29.5615C16.8513 29.2447 16.6301 28.9827 16.3301 28.8584C16.0675 28.7497 15.773 28.7579 15.5195 28.8779L15.4131 28.9365L8.03125 33.5986C7.56411 33.8934 6.95583 33.825 6.56543 33.4346C6.17503 33.0442 6.10657 32.4359 6.40137 31.9688L11.0625 24.5859C11.2359 24.3113 11.2659 23.9691 11.1416 23.6689C11.0173 23.3688 10.7544 23.1477 10.4375 23.0762L1.9209 21.1533C1.38255 21.0315 1 20.5525 1 20C1 19.4475 1.38255 18.9685 1.9209 18.8467L10.4375 16.9229C10.7544 16.8513 11.0173 16.6302 11.1416 16.3301C11.2658 16.03 11.2359 15.6877 11.0625 15.4131L6.40137 8.03125C6.10657 7.56411 6.17503 6.95583 6.56543 6.56543C6.95583 6.17503 7.56411 6.10657 8.03125 6.40137L15.4131 11.0625C15.6877 11.2359 16.03 11.2658 16.3301 11.1416C16.6302 11.0173 16.8513 10.7544 16.9229 10.4375L18.8467 1.9209C18.9685 1.38255 19.4475 1 20 1Z" fill="#F9FFB3" stroke="white" stroke-width="2" stroke-linejoin="round"/>
<path d="M13.7011 21.613C13.6754 21.4973 13.6798 21.4065 13.7142 21.3405C13.7485 21.2745 13.7929 21.2168 13.8473 21.1674C13.9017 21.118 13.9473 21.0659 13.9841 21.011C14.0205 20.9539 14.028 20.8776 14.0068 20.7819L13.4661 18.3461C13.4444 18.2482 13.405 18.1811 13.3479 18.1447C13.2908 18.1084 13.2274 18.0805 13.1577 18.0609C13.0875 18.0392 13.0229 18.0056 12.9638 17.9604C12.9048 17.9152 12.8627 17.8358 12.8375 17.7224C12.8098 17.5978 12.8263 17.4984 12.8869 17.4243C12.9492 17.3475 13.0393 17.2959 13.1572 17.2698L15.1459 16.8283C15.6441 16.7177 16.1137 16.7197 16.5546 16.8342C16.995 16.9465 17.371 17.163 17.6826 17.4836C17.9964 17.8038 18.2104 18.2208 18.3244 18.7346C18.4227 19.1773 18.4037 19.5806 18.2674 19.9447C18.1312 20.3087 17.9074 20.6151 17.5962 20.8639C17.2845 21.1105 16.9162 21.281 16.4913 21.3753L14.1823 21.8878C14.0621 21.9145 13.959 21.9071 13.8727 21.8655C13.7865 21.824 13.7293 21.7398 13.7011 21.613ZM16.1693 20.666C16.3339 20.6295 16.4563 20.5498 16.5364 20.427C16.6165 20.3041 16.6664 20.1612 16.6862 19.9981C16.7083 19.8345 16.7113 19.6692 16.6953 19.5024C16.6792 19.3356 16.6576 19.191 16.6305 19.0686C16.5925 18.8973 16.5362 18.7173 16.4616 18.5284C16.3865 18.3374 16.2896 18.164 16.171 18.0082C16.0542 17.8498 15.9133 17.7305 15.7485 17.6504C15.5859 17.5698 15.3956 17.5537 15.1776 17.6021L15.0307 17.6346L15.61 20.244C15.6435 20.3952 15.7023 20.5129 15.7863 20.597C15.8726 20.6805 16.0002 20.7035 16.1693 20.666ZM20.4432 16.7973L20.9839 19.2331C21.0052 19.3288 21.0432 19.395 21.0981 19.4319C21.1524 19.4665 21.2136 19.4949 21.2816 19.5172C21.349 19.5372 21.4112 19.5701 21.468 19.6158C21.5249 19.6616 21.5664 19.7434 21.5925 19.8613C21.6207 19.9881 21.6045 20.0886 21.5439 20.1627C21.4833 20.2368 21.393 20.2872 21.2729 20.3139L19.5377 20.699C19.4176 20.7257 19.3144 20.7183 19.2282 20.6767C19.1419 20.6352 19.0847 20.551 19.0566 20.4242C19.0309 20.3085 19.0342 20.218 19.0663 20.1525C19.0984 20.087 19.1408 20.0309 19.1935 19.9842C19.2457 19.9353 19.2888 19.8825 19.3229 19.8259C19.357 19.7693 19.3635 19.6932 19.3423 19.5975L18.8016 17.1617C18.7803 17.0661 18.7423 16.9998 18.6874 16.963C18.6326 16.9261 18.5714 16.8977 18.5039 16.8777C18.436 16.8554 18.3736 16.8214 18.3167 16.7757C18.2599 16.7299 18.2186 16.6492 18.193 16.5336C18.1648 16.4068 18.181 16.3063 18.2416 16.2322C18.3022 16.158 18.3925 16.1076 18.5126 16.081L20.2477 15.6958C20.3679 15.6692 20.4711 15.6766 20.5573 15.7181C20.6435 15.7597 20.7007 15.8438 20.7289 15.9706C20.7546 16.0863 20.7513 16.1769 20.7192 16.2424C20.687 16.3079 20.6449 16.3651 20.5927 16.414C20.5401 16.4607 20.4967 16.5123 20.4626 16.5689C20.4284 16.6255 20.422 16.7017 20.4432 16.7973ZM22.0163 19.7672C21.9906 19.6515 21.995 19.5607 22.0293 19.4947C22.0637 19.4288 22.1081 19.3711 22.1625 19.3216C22.2169 19.2722 22.2625 19.2201 22.2993 19.1652C22.3356 19.1081 22.3432 19.0318 22.322 18.9361L21.7813 16.5003C21.7595 16.4024 21.7201 16.3353 21.6631 16.299C21.606 16.2626 21.5426 16.2347 21.4729 16.2151C21.4027 16.1934 21.3381 16.1599 21.279 16.1146C21.22 16.0694 21.1778 15.99 21.1527 15.8766C21.125 15.752 21.1415 15.6527 21.202 15.5785C21.2643 15.5017 21.3544 15.4502 21.4723 15.424L23.461 14.9825C23.9593 14.8719 24.4289 14.8739 24.8698 14.9884C25.3102 15.1007 25.6862 15.3172 25.9978 15.6378C26.3116 15.958 26.5255 16.375 26.6396 16.8888C26.7379 17.3315 26.7189 17.7349 26.5826 18.0989C26.4463 18.4629 26.2226 18.7693 25.9114 19.0181C25.5996 19.2647 25.2314 19.4352 24.8065 19.5295L22.4974 20.042C22.3773 20.0687 22.2741 20.0613 22.1879 20.0197C22.1016 19.9782 22.0444 19.894 22.0163 19.7672ZM24.4845 18.8202C24.6491 18.7837 24.7714 18.704 24.8515 18.5812C24.9317 18.4584 24.9816 18.3154 25.0014 18.1523C25.0235 17.9887 25.0265 17.8234 25.0104 17.6566C24.9944 17.4898 24.9728 17.3452 24.9457 17.2228C24.9076 17.0515 24.8513 16.8715 24.7767 16.6826C24.7016 16.4916 24.6048 16.3182 24.4862 16.1624C24.3693 16.004 24.2285 15.8847 24.0636 15.8046C23.901 15.724 23.7107 15.7079 23.4927 15.7563L23.3459 15.7888L23.9251 18.3982C23.9587 18.5495 24.0175 18.6671 24.1015 18.7512C24.1878 18.8347 24.3154 18.8577 24.4845 18.8202ZM19.3477 23.1865L19.8884 25.6224C19.9096 25.718 19.9477 25.7843 20.0025 25.8211C20.0569 25.8557 20.118 25.8842 20.186 25.9064C20.2535 25.9265 20.3156 25.9593 20.3725 26.0051C20.4293 26.0508 20.4708 26.1326 20.497 26.2505C20.5251 26.3773 20.5089 26.4778 20.4483 26.5519C20.3878 26.6261 20.2974 26.6765 20.1773 26.7031L18.4422 27.0883C18.3221 27.1149 18.2189 27.1075 18.1326 27.066C18.0464 27.0244 17.9892 26.9402 17.961 26.8134C17.9354 26.6978 17.9386 26.6072 17.9707 26.5417C18.0029 26.4762 18.0453 26.4201 18.0979 26.3734C18.1501 26.3245 18.1932 26.2717 18.2274 26.2152C18.2615 26.1586 18.2679 26.0824 18.2467 25.9868L17.706 23.551C17.6848 23.4553 17.6467 23.3891 17.5919 23.3522C17.537 23.3154 17.4758 23.2869 17.4084 23.2669C17.3404 23.2447 17.278 23.2107 17.2212 23.1649C17.1643 23.1192 17.1231 23.0385 17.0974 22.9228C17.0693 22.796 17.0855 22.6955 17.146 22.6214C17.2066 22.5473 17.2969 22.4969 17.4171 22.4702L19.1522 22.0851C19.2723 22.0584 19.3755 22.0658 19.4617 22.1074C19.548 22.1489 19.6052 22.2331 19.6333 22.3599C19.659 22.4756 19.6558 22.5661 19.6236 22.6316C19.5915 22.6971 19.5493 22.7543 19.4972 22.8032C19.4445 22.8499 19.4011 22.9016 19.367 22.9582C19.3329 23.0148 19.3264 23.0909 19.3477 23.1865ZM21.2977 21.6088L22.8993 21.2533C22.9594 21.2399 23.019 21.2244 23.0781 21.2066C23.1366 21.1866 23.1934 21.1635 23.2482 21.1373C23.3137 21.1064 23.3781 21.0758 23.4414 21.0454C23.5064 21.0123 23.5734 20.9881 23.6424 20.9728C23.8203 20.9333 23.956 20.9557 24.0494 21.04C24.1423 21.1221 24.2236 21.2359 24.2933 21.3815L24.6464 22.1049C24.6684 22.1513 24.6841 22.1957 24.6935 22.238C24.7191 22.3536 24.7027 22.453 24.6441 22.536C24.585 22.6168 24.4987 22.6698 24.3853 22.695C24.2874 22.7167 24.2029 22.704 24.1317 22.6568C24.0623 22.6068 23.9976 22.5418 23.9379 22.4617C23.8781 22.3816 23.8149 22.3023 23.7485 22.2237C23.6842 22.1446 23.6076 22.0834 23.5187 22.0401C23.4314 21.9941 23.3222 21.9857 23.1909 22.0148L23.0942 22.0363L23.7023 24.7758C23.7225 24.867 23.7603 24.9321 23.8157 24.9712C23.871 25.0102 23.9307 25.0425 23.9947 25.068C24.0605 25.0907 24.122 25.1261 24.1793 25.174C24.2361 25.2198 24.2767 25.2971 24.3009 25.4061C24.3295 25.5352 24.3135 25.6367 24.253 25.7109C24.1941 25.7823 24.1035 25.8316 23.9812 25.8587L22.2628 26.2402C22.1426 26.2669 22.0395 26.2594 21.9532 26.2179C21.8665 26.1741 21.809 26.0888 21.7809 25.962C21.7572 25.8553 21.7614 25.7691 21.7935 25.7036C21.8257 25.6381 21.8665 25.5801 21.9159 25.5294C21.9654 25.4788 22.0071 25.4251 22.0413 25.3685C22.0749 25.3097 22.0813 25.2336 22.0606 25.1402L21.4525 22.4007L21.3557 22.4222C21.2245 22.4513 21.128 22.5054 21.0661 22.5845C21.0061 22.6609 20.9626 22.7487 20.9356 22.8481C20.9086 22.9474 20.8852 23.0471 20.8655 23.1472C20.8452 23.2451 20.8141 23.3313 20.7723 23.406C20.7323 23.4779 20.6633 23.5247 20.5654 23.5464C20.4498 23.5721 20.3481 23.5608 20.2603 23.5126C20.1721 23.4622 20.1149 23.378 20.0887 23.2601C20.0794 23.2179 20.0748 23.171 20.0751 23.1196L20.0856 22.3155C20.0889 22.1514 20.1152 22.0125 20.1647 21.8988C20.2141 21.7851 20.3279 21.7085 20.5058 21.669C20.5703 21.6547 20.6343 21.6487 20.6979 21.6509C20.7636 21.6527 20.8291 21.6533 20.8943 21.6528C20.9618 21.6518 21.0288 21.6486 21.0953 21.6432C21.1635 21.6351 21.231 21.6236 21.2977 21.6088Z" fill="#FB5012"/>
</svg>
