<svg width="15" height="13" viewBox="0 0 15 13" fill="none" xmlns="http://www.w3.org/2000/svg">
<path d="M8.8979 0.5C9.15045 0.499996 9.39831 0.568311 9.6152 0.697705C9.83209 0.8271 10.0099 1.01276 10.1299 1.235L10.4701 1.865C10.5901 2.08724 10.7679 2.2729 10.9848 2.40229C11.2017 2.53169 11.4495 2.6 11.7021 2.6H13.1C13.4713 2.6 13.8274 2.7475 14.0899 3.01005C14.3525 3.2726 14.5 3.6287 14.5 4V10.3C14.5 10.6713 14.3525 11.0274 14.0899 11.2899C13.8274 11.5525 13.4713 11.7 13.1 11.7H1.9C1.5287 11.7 1.1726 11.5525 0.91005 11.2899C0.6475 11.0274 0.5 10.6713 0.5 10.3V4C0.5 3.6287 0.6475 3.2726 0.91005 3.01005C1.1726 2.7475 1.5287 2.6 1.9 2.6H3.2979C3.55019 2.60001 3.7978 2.53185 4.01455 2.40272C4.23129 2.27358 4.40911 2.08828 4.5292 1.8664L4.8715 1.2336C4.99159 1.01172 5.16941 0.826417 5.38615 0.697284C5.6029 0.56815 5.8505 0.499986 6.1028 0.5H8.8979Z" stroke="#532F07" stroke-linecap="round" stroke-linejoin="round"/>
<path d="M7.50001 8.9C8.65981 8.9 9.60001 7.9598 9.60001 6.8C9.60001 5.64021 8.65981 4.7 7.50001 4.7C6.34022 4.7 5.40001 5.64021 5.40001 6.8C5.40001 7.9598 6.34022 8.9 7.50001 8.9Z" stroke="#532F07" stroke-linecap="round" stroke-linejoin="round"/>
</svg>
