<svg width="100" height="100" viewBox="0 0 100 100" fill="none" xmlns="http://www.w3.org/2000/svg">
<circle cx="50" cy="50" r="50" fill="#F9FFB3"/>
<path d="M78.9726 40.7678C79.8162 40.0548 81.0781 40.1607 81.7911 41.0043C82.5041 41.8479 82.3982 43.1098 81.5546 43.8228L80.2636 42.2953L78.9726 40.7678ZM80.1872 42.3599L78.2192 42.0036L78.3472 41.2964L78.8962 40.8324L80.1872 42.3599ZM76.4186 49.1151L75.6175 47.2825L76.4186 49.1151ZM64.9844 49.9699L65.5471 48.0507L64.9844 49.9699ZM61.0981 46.6536L59.2327 47.3749L61.0981 46.6536ZM59.9357 43.9934L58.5489 45.4346L58.4671 45.3558L58.3947 45.2683L59.9357 43.9934ZM59.8087 43.8399L60.8347 42.1231L61.1302 42.2997L61.3497 42.565L59.8087 43.8399ZM58.6969 45.5054C57.7487 44.9388 57.4394 43.7108 58.0061 42.7626C58.5727 41.8145 59.8007 41.5052 60.7488 42.0718L59.7229 43.7886L58.6969 45.5054ZM80.2636 42.2953L81.5546 43.8228L81.4783 43.8874L80.1872 42.3599L78.8962 40.8324L78.9726 40.7678L80.2636 42.2953ZM80.1872 42.3599L82.1552 42.7161C81.4658 46.5247 80.0482 49.7111 77.2196 50.9476L76.4186 49.1151L75.6175 47.2825C76.4751 46.9076 77.5699 45.5906 78.2192 42.0036L80.1872 42.3599ZM76.4186 49.1151L77.2196 50.9476C75.188 51.8357 73.1006 52.3804 70.9639 52.5695L70.7876 50.5773L70.6113 48.5851C72.2963 48.4359 73.9629 48.0058 75.6175 47.2825L76.4186 49.1151ZM70.7876 50.5773L70.9639 52.5695C68.7888 52.762 66.6039 52.5289 64.4217 51.8891L64.9844 49.9699L65.5471 48.0507C67.2808 48.559 68.9646 48.7308 70.6113 48.5851L70.7876 50.5773ZM64.9844 49.9699L64.4217 51.8891C61.9767 51.1723 60.1283 49.6908 59.2327 47.3749L61.0981 46.6536L62.9635 45.9322C63.3339 46.89 64.0764 47.6195 65.5471 48.0507L64.9844 49.9699ZM61.0981 46.6536L59.2327 47.3749C58.9197 46.5655 58.6766 45.9658 58.5001 45.5617C58.4107 45.3571 58.349 45.2274 58.3118 45.1555C58.2928 45.1187 58.2916 45.1193 58.3062 45.1425C58.3139 45.1549 58.3337 45.1857 58.3647 45.2272C58.3919 45.2635 58.4537 45.3429 58.5489 45.4346L59.9357 43.9934L61.3225 42.5523C61.5217 42.744 61.6477 42.9421 61.6947 43.017C61.7601 43.1213 61.8174 43.2264 61.8646 43.3175C61.9597 43.5014 62.0611 43.7213 62.1654 43.9601C62.3763 44.4427 62.6435 45.1047 62.9635 45.9322L61.0981 46.6536ZM59.9357 43.9934L58.3947 45.2683L58.2677 45.1148L59.8087 43.8399L61.3497 42.565L61.4767 42.7185L59.9357 43.9934ZM59.8087 43.8399L58.7827 45.5567L58.6969 45.5054L59.7229 43.7886L60.7488 42.0718L60.8347 42.1231L59.8087 43.8399Z" fill="#FB5012"/>
<path d="M40.6036 43.1393C41.4472 42.4263 42.7091 42.5321 43.4222 43.3757C44.1352 44.2193 44.0293 45.4812 43.1857 46.1943L41.8947 44.6668L40.6036 43.1393ZM41.8183 44.7313L39.8503 44.3751L39.9783 43.6678L40.5273 43.2038L41.8183 44.7313ZM38.0496 51.4865L37.2485 49.6539L38.0496 51.4865ZM26.6155 52.3414L27.1782 50.4221L26.6155 52.3414ZM22.7291 49.025L20.8638 49.7464L22.7291 49.025ZM21.5668 46.3649L20.18 47.806L20.0982 47.7272L20.0258 47.6397L21.5668 46.3649ZM21.4398 46.2113L22.4657 44.4945L22.7613 44.6711L22.9807 44.9364L21.4398 46.2113ZM20.3279 47.8768C19.3798 47.3102 19.0705 46.0822 19.6371 45.1341C20.2037 44.1859 21.4317 43.8766 22.3799 44.4432L21.3539 46.16L20.3279 47.8768ZM41.8947 44.6668L43.1857 46.1943L43.1093 46.2588L41.8183 44.7313L40.5273 43.2038L40.6036 43.1393L41.8947 44.6668ZM41.8183 44.7313L43.7863 45.0876C43.0969 48.8961 41.6793 52.0826 38.8507 53.319L38.0496 51.4865L37.2485 49.6539C38.1062 49.279 39.201 47.962 39.8503 44.3751L41.8183 44.7313ZM38.0496 51.4865L38.8507 53.319C36.8191 54.2072 34.7317 54.7518 32.595 54.9409L32.4186 52.9487L32.2423 50.9565C33.9274 50.8074 35.594 50.3772 37.2485 49.6539L38.0496 51.4865ZM32.4186 52.9487L32.595 54.9409C30.4199 55.1335 28.2349 54.9004 26.0528 54.2606L26.6155 52.3414L27.1782 50.4221C28.9119 50.9304 30.5957 51.1023 32.2423 50.9565L32.4186 52.9487ZM26.6155 52.3414L26.0528 54.2606C23.6077 53.5437 21.7594 52.0623 20.8638 49.7464L22.7291 49.025L24.5945 48.3036C24.9649 49.2615 25.7074 49.9909 27.1782 50.4221L26.6155 52.3414ZM22.7291 49.025L20.8638 49.7464C20.5507 48.9369 20.3077 48.3372 20.1311 47.9331C20.0417 47.7285 19.9801 47.5988 19.9429 47.5269C19.9239 47.4901 19.9226 47.4907 19.9372 47.514C19.945 47.5263 19.9647 47.5572 19.9958 47.5986C20.023 47.6349 20.0847 47.7143 20.18 47.806L21.5668 46.3649L22.9535 44.9237C23.1527 45.1154 23.2788 45.3136 23.3258 45.3885C23.3912 45.4928 23.4485 45.5978 23.4956 45.689C23.5907 45.8728 23.6921 46.0927 23.7965 46.3315C24.0073 46.8141 24.2745 47.4762 24.5945 48.3036L22.7291 49.025ZM21.5668 46.3649L20.0258 47.6397L19.8988 47.4862L21.4398 46.2113L22.9807 44.9364L23.1078 45.09L21.5668 46.3649ZM21.4398 46.2113L20.4138 47.9281L20.3279 47.8768L21.3539 46.16L22.3799 44.4432L22.4657 44.4945L21.4398 46.2113Z" fill="#FB5012"/>
<path d="M47.6393 50.6882C46.8972 49.87 46.9588 48.6052 47.777 47.8631C48.5951 47.121 49.8599 47.1826 50.602 48.0008L49.1207 49.3445L47.6393 50.6882ZM49.1879 49.4185L47.745 50.8035L47.7254 50.7831L47.7065 50.7622L49.1879 49.4185ZM55.3211 55.7873L56.7572 54.3953L55.3211 55.7873ZM57.3617 59.221L59.361 59.2737L57.3617 59.221ZM54.3412 60.5255L54.3337 58.5255L54.3412 60.5255ZM44.4443 59.5853L44.1677 57.6045L44.1857 57.602L44.2038 57.5998L44.4443 59.5853ZM43.5405 59.7115L43.8172 61.6923L43.6334 61.718L43.4479 61.7094L43.5405 59.7115ZM43.348 61.7048C42.2447 61.6536 41.3916 60.7177 41.4428 59.6143C41.4939 58.5109 42.4298 57.6579 43.5332 57.7091L43.4406 59.7069L43.348 61.7048ZM49.1207 49.3445L50.602 48.0008L50.6692 48.0748L49.1879 49.4185L47.7065 50.7622L47.6393 50.6882L49.1207 49.3445ZM49.1879 49.4185L50.6307 48.0336C53.336 50.8519 55.3777 52.972 56.7572 54.3953L55.3211 55.7873L53.885 57.1793C52.4984 55.7487 50.4513 53.623 47.745 50.8035L49.1879 49.4185ZM55.3211 55.7873L56.7572 54.3953C57.5097 55.1717 58.1395 55.9397 58.5879 56.6942C59.0241 57.4283 59.3863 58.3124 59.361 59.2737L57.3617 59.221L55.3624 59.1684C55.3598 59.2674 55.3932 59.1482 55.1492 58.7377C54.9174 58.3476 54.5156 57.8299 53.885 57.1793L55.3211 55.7873ZM57.3617 59.221L59.361 59.2737C59.3444 59.9032 59.1366 60.5144 58.7266 61.031C58.3372 61.5216 57.8423 61.8313 57.3825 62.0299C56.5045 62.4091 55.4299 62.5215 54.3487 62.5255L54.3412 60.5255L54.3337 58.5255C54.764 58.5239 55.1014 58.4991 55.358 58.4612C55.6206 58.4225 55.7527 58.3767 55.7966 58.3577C55.8401 58.3389 55.7257 58.3778 55.5936 58.5441C55.441 58.7364 55.3676 58.97 55.3624 59.1684L57.3617 59.221ZM54.3412 60.5255L54.3487 62.5255C52.2347 62.5334 50.1327 62.3474 48.044 61.968L48.4014 60.0002L48.7589 58.0324C50.608 58.3683 52.4658 58.5325 54.3337 58.5255L54.3412 60.5255ZM48.4014 60.0002L48.044 61.968C46.0246 61.6011 45.0042 61.5321 44.6849 61.5708L44.4443 59.5853L44.2038 57.5998C45.2228 57.4763 46.8404 57.6839 48.7589 58.0324L48.4014 60.0002ZM44.4443 59.5853L44.721 61.5661L43.8172 61.6923L43.5405 59.7115L43.2638 57.7308L44.1677 57.6045L44.4443 59.5853ZM43.5405 59.7115L43.4479 61.7094L43.348 61.7048L43.4406 59.7069L43.5332 57.7091L43.6331 57.7137L43.5405 59.7115Z" fill="#FB5012"/>
<path d="M2.70575 39.7781C3.74186 39.7615 9.79604 38.4092 17.3726 35.6094C20.9869 34.2738 23.9026 32.5246 26.7586 30.5275C32.5029 26.5106 35.812 22.7836 38.0374 19.5383C43.8168 9.06055 44.6188 6.2366 44.6853 5.08801C44.7153 4.4322 44.7377 3.6283 44.7608 2.80005" stroke="#532F07" stroke-width="4" stroke-linecap="round"/>
<path d="M10.8168 22.0586C9.79162 22.4697 9.2938 23.6341 9.70491 24.6593C10.116 25.6845 11.2804 26.1824 12.3056 25.7712L11.5612 23.9149L10.8168 22.0586ZM11.654 23.8777L11.4814 21.8852L11.1854 21.9108L10.9097 22.0214L11.654 23.8777ZM33.064 10.4669L31.2456 9.63417L33.064 10.4669ZM34.3696 7.7003L36.0459 8.79128L36.0952 8.71555L36.1374 8.63569L34.3696 7.7003ZM34.4353 7.57623L32.9106 6.28186L32.7695 6.4481L32.6675 6.64084L34.4353 7.57623ZM36.0247 8.79437C36.7395 7.95232 36.6364 6.6902 35.7944 5.97534C34.9523 5.26047 33.6902 5.36358 32.9753 6.20563L34.5 7.5L36.0247 8.79437ZM11.5612 23.9149L12.3056 25.7712L12.3984 25.734L11.654 23.8777L10.9097 22.0214L10.8168 22.0586L11.5612 23.9149ZM11.654 23.8777L11.8267 25.8702C15.7675 25.5288 18.9194 24.8652 21.0249 23.7156L20.0664 21.9602L19.108 20.2048C17.7634 20.939 15.3071 21.5537 11.4814 21.8852L11.654 23.8777ZM20.0664 21.9602L21.0249 23.7156C22.8339 22.7278 24.5717 21.6112 26.238 20.3663L25.041 18.7641L23.844 17.1618C22.3276 18.2947 20.7491 19.3087 19.108 20.2048L20.0664 21.9602ZM25.041 18.7641L26.238 20.3663C27.8735 19.1444 29.4555 17.8572 30.9838 16.5047L29.6584 15.007L28.333 13.5092C26.8874 14.7885 25.3911 16.006 23.844 17.1618L25.041 18.7641ZM29.6584 15.007L30.9838 16.5047C32.6679 15.0144 33.9764 13.278 34.8824 11.2996L33.064 10.4669L31.2456 9.63417C30.5846 11.0775 29.6227 12.3679 28.333 13.5092L29.6584 15.007ZM33.064 10.4669L34.8824 11.2996C35.2732 10.4464 35.5741 9.79633 35.7868 9.34566C35.8935 9.11945 35.9746 8.95084 36.0319 8.83492C36.1139 8.66913 36.1021 8.70492 36.0459 8.79128L34.3696 7.7003L32.6934 6.60931C32.5937 6.76245 32.4949 6.96358 32.4464 7.06172C32.3732 7.20974 32.2802 7.40365 32.1693 7.63854C31.9468 8.11007 31.6384 8.77653 31.2456 9.63417L33.064 10.4669ZM34.3696 7.7003L36.1374 8.63569L36.2031 8.51162L34.4353 7.57623L32.6675 6.64084L32.6019 6.76491L34.3696 7.7003ZM34.4353 7.57623L35.9599 8.87061L36.0247 8.79437L34.5 7.5L32.9753 6.20563L32.9106 6.28186L34.4353 7.57623Z" fill="#532F07"/>
<path d="M49.7605 4.72713C49.1212 3.82638 47.8727 3.61444 46.9719 4.25374C46.0712 4.89305 45.8592 6.14152 46.4986 7.04228L48.1295 5.8847L49.7605 4.72713ZM48.1874 5.96625L49.9395 5.0018L49.8844 4.90178L49.8184 4.80868L48.1874 5.96625ZM55.9598 18.5626L54.8686 20.2387L55.9598 18.5626ZM61.3603 21.4029L60.6 23.2527L61.3603 21.4029ZM66.2873 24.7939L64.834 26.168L66.2873 24.7939ZM76.6329 30.8836L75.9319 32.7567L76.6329 30.8836ZM82.5305 32.1748L82.3877 34.1697L82.5305 32.1748ZM92.9478 31.8507L93.3348 29.8885L93.3268 29.8869L93.3189 29.8854L92.9478 31.8507ZM94.2242 32.1024L93.8371 34.0646L93.949 34.0867L94.0627 34.0959L94.2242 32.1024ZM94.1624 34.104C95.2634 34.1931 96.2282 33.3729 96.3173 32.2719C96.4065 31.171 95.5862 30.2062 94.4853 30.117L94.3238 32.1105L94.1624 34.104ZM48.1295 5.8847L46.4986 7.04228L46.5564 7.12382L48.1874 5.96625L49.8184 4.80868L49.7605 4.72713L48.1295 5.8847ZM48.1874 5.96625L46.4353 6.93071C48.3077 10.3322 49.5986 12.9262 50.3415 14.7449L52.193 13.9887L54.0445 13.2324C53.2133 11.1974 51.8338 8.44318 49.9395 5.0018L48.1874 5.96625ZM52.193 13.9887L50.3415 14.7449C51.2806 17.0439 52.7991 18.8914 54.8686 20.2387L55.9598 18.5626L57.0509 16.8865C55.6722 15.9889 54.6796 14.7872 54.0445 13.2324L52.193 13.9887ZM55.9598 18.5626L54.8686 20.2387C56.6959 21.4283 58.6067 22.4335 60.6 23.2527L61.3603 21.4029L62.1205 19.553C60.3614 18.83 58.6719 17.9418 57.0509 16.8865L55.9598 18.5626ZM61.3603 21.4029L60.6 23.2527C62.2113 23.9149 63.6181 24.882 64.834 26.168L66.2873 24.7939L67.7405 23.4199C66.1396 21.7266 64.2617 20.433 62.1205 19.553L61.3603 21.4029ZM66.2873 24.7939L64.834 26.168C66.3934 27.8172 68.1703 29.1623 70.1598 30.1941L71.0806 28.4186L72.0014 26.6432C70.4166 25.8213 68.9981 24.7499 67.7405 23.4199L66.2873 24.7939ZM71.0806 28.4186L70.1598 30.1941C72.0192 31.1584 73.9434 32.0126 75.9319 32.7567L76.6329 30.8836L77.3339 29.0104C75.4934 28.3217 73.7161 27.5325 72.0014 26.6432L71.0806 28.4186ZM76.6329 30.8836L75.9319 32.7567C78.0237 33.5395 80.1774 34.0115 82.3877 34.1697L82.5305 32.1748L82.6733 30.1799C80.849 30.0493 79.071 29.6605 77.3339 29.0104L76.6329 30.8836ZM82.5305 32.1748L82.3877 34.1697C84.5406 34.3238 86.688 34.2584 88.8279 33.9736L88.564 31.9911L88.3002 30.0086C86.4298 30.2575 84.5549 30.3146 82.6733 30.1799L82.5305 32.1748ZM88.564 31.9911L88.8279 33.9736C90.8093 33.7099 91.9968 33.7064 92.5767 33.8159L92.9478 31.8507L93.3189 29.8854C92.064 29.6485 90.329 29.7386 88.3002 30.0086L88.564 31.9911ZM92.9478 31.8507L92.5607 33.8129L93.8371 34.0646L94.2242 32.1024L94.6112 30.1402L93.3348 29.8885L92.9478 31.8507ZM94.2242 32.1024L94.0627 34.0959L94.1624 34.104L94.3238 32.1105L94.4853 30.117L94.3856 30.109L94.2242 32.1024Z" fill="#532F07"/>
<path d="M53.533 3.49814C52.6211 2.87489 51.3766 3.10892 50.7533 4.02087C50.1301 4.93281 50.3641 6.17733 51.2761 6.80057L52.4045 5.14935L53.533 3.49814ZM52.4871 5.20578L51.3586 6.85699L51.5793 7.00782L51.8319 7.0954L52.4871 5.20578ZM75.8097 17.4358L74.3714 18.8254L75.8097 17.4358ZM80.9107 22.0686L79.6595 23.6288L80.9107 22.0686ZM86.1332 23.2151L85.326 21.3852L86.1332 23.2151ZM88.3107 21.1927L90.2339 20.6434L90.2094 20.5579L90.1775 20.4748L88.3107 21.1927ZM87.9425 20.235L88.2342 18.2564L84.8469 17.757L86.0757 20.9528L87.9425 20.235ZM87.7497 22.2282C88.8425 22.3893 89.8589 21.634 90.02 20.5412C90.1811 19.4485 89.4258 18.432 88.3331 18.2709L88.0414 20.2496L87.7497 22.2282ZM52.4045 5.14935L51.2761 6.80057L51.3586 6.85699L52.4871 5.20578L53.6156 3.55456L53.533 3.49814L52.4045 5.14935ZM52.4871 5.20578L51.8319 7.0954C55.583 8.39613 57.5773 9.76489 58.3988 10.966L60.0496 9.83692L61.7004 8.7078C60.1204 6.39782 57.073 4.67916 53.1423 3.31616L52.4871 5.20578ZM60.0496 9.83692L58.3988 10.966C59.2105 12.1526 60.2877 13.0416 61.6196 13.5522C62.9309 14.0551 64.3696 14.1463 65.8607 13.9436L65.5914 11.9618L65.322 9.98006C64.3194 10.1163 63.5876 10.0229 63.0517 9.81739C62.5363 9.61977 62.0896 9.27674 61.7004 8.7078L60.0496 9.83692ZM65.5914 11.9618L65.8607 13.9436C68.0102 13.6515 69.2984 14.0638 70.1032 14.7568L71.4082 13.2412L72.7131 11.7256C70.7496 10.0348 68.1599 9.59434 65.322 9.98006L65.5914 11.9618ZM71.4082 13.2412L70.1032 14.7568C71.4322 15.9011 72.8547 17.2556 74.3714 18.8254L75.8097 17.4358L77.2481 16.0461C75.6643 14.4068 74.1525 12.9649 72.7131 11.7256L71.4082 13.2412ZM75.8097 17.4358L74.3714 18.8254C75.9838 20.4944 77.7472 22.0953 79.6595 23.6288L80.9107 22.0686L82.162 20.5083C80.3733 19.0739 78.7361 17.5863 77.2481 16.0461L75.8097 17.4358ZM80.9107 22.0686L79.6595 23.6288C81.8686 25.4003 84.399 26.1661 86.9404 25.045L86.1332 23.2151L85.326 21.3852C84.605 21.7033 83.6538 21.7047 82.162 20.5083L80.9107 22.0686ZM86.1332 23.2151L86.9404 25.045C87.8241 24.6552 88.6547 24.1994 89.2621 23.6352C89.8617 23.0783 90.6265 22.0183 90.2339 20.6434L88.3107 21.1927L86.3876 21.7419C86.2974 21.4259 86.3389 21.1196 86.4312 20.8994C86.5079 20.7165 86.5912 20.6568 86.54 20.7044C86.4946 20.7465 86.3834 20.8356 86.1689 20.9624C85.9591 21.0865 85.6818 21.2283 85.326 21.3852L86.1332 23.2151ZM88.3107 21.1927L90.1775 20.4748L89.8092 19.5171L87.9425 20.235L86.0757 20.9528L86.444 21.9105L88.3107 21.1927ZM87.9425 20.235L87.6508 22.2136L87.7497 22.2282L88.0414 20.2496L88.3331 18.2709L88.2342 18.2564L87.9425 20.235Z" fill="#532F07"/>
<path d="M28.8981 65.7772C28.2 64.9213 26.9401 64.7933 26.0842 65.4914C25.2282 66.1896 25.1003 67.4494 25.7984 68.3054L27.3483 67.0413L28.8981 65.7772ZM27.4115 67.1188L29.2407 66.31L29.1317 66.0636L28.9613 65.8547L27.4115 67.1188ZM41.3115 81.4678L42.1856 79.6689L41.3115 81.4678ZM46.8878 83.3223L46.5088 85.2861L46.8878 83.3223ZM70.3762 71.4596L72.0181 72.6016L72.026 72.5901L72.0338 72.5785L70.3762 71.4596ZM71.065 70.4391L69.6438 69.0319L69.512 69.165L69.4073 69.3202L71.065 70.4391ZM72.5565 71.7753C73.3337 70.9904 73.3274 69.7241 72.5425 68.9469C71.7576 68.1697 70.4913 68.176 69.7141 68.9609L71.1353 70.3681L72.5565 71.7753ZM27.3483 67.0413L25.7984 68.3054L25.8616 68.3829L27.4115 67.1188L28.9613 65.8547L28.8981 65.7772L27.3483 67.0413ZM27.4115 67.1188L25.5823 67.9276C27.1399 71.4505 28.7417 74.1633 30.4469 75.8268L31.8435 74.3952L33.2401 72.9637C32.0969 71.8484 30.744 69.7103 29.2407 66.31L27.4115 67.1188ZM31.8435 74.3952L30.4469 75.8268C31.9206 77.2645 33.4639 78.6212 35.0766 79.8967L36.3172 78.328L37.5579 76.7594C36.054 75.5699 34.6148 74.3048 33.2401 72.9637L31.8435 74.3952ZM36.3172 78.328L35.0766 79.8967C36.7473 81.2181 38.5348 82.3421 40.4374 83.2666L41.3115 81.4678L42.1856 79.6689C40.5457 78.872 39.0037 77.9029 37.5579 76.7594L36.3172 78.328ZM41.3115 81.4678L40.4374 83.2666C42.3667 84.2042 44.3921 84.8775 46.5088 85.2861L46.8878 83.3223L47.2668 81.3586C45.4909 81.0158 43.7987 80.4528 42.1856 79.6689L41.3115 81.4678ZM46.8878 83.3223L46.5088 85.2861C48.6428 85.698 50.7963 85.8007 52.9634 85.5943L52.7738 83.6033L52.5841 81.6123C50.796 81.7826 49.0255 81.698 47.2668 81.3586L46.8878 83.3223ZM52.7738 83.6033L52.9634 85.5943C55.1645 85.3847 57.2635 84.8178 59.2498 83.8933L58.4059 82.0801L57.562 80.2669C55.994 80.9966 54.3382 81.4453 52.5841 81.6123L52.7738 83.6033ZM58.4059 82.0801L59.2498 83.8933C61.1926 82.989 62.9894 81.8329 64.637 80.4292L63.3399 78.9068L62.0429 77.3844C60.666 78.5574 59.1734 79.5168 57.562 80.2669L58.4059 82.0801ZM63.3399 78.9068L64.637 80.4292C66.2147 79.085 67.7007 77.6437 69.0946 76.1058L67.6126 74.7627L66.1307 73.4196C64.8521 74.8304 63.4896 76.1519 62.0429 77.3844L63.3399 78.9068ZM67.6126 74.7627L69.0946 76.1058C70.4356 74.6261 71.4325 73.4434 72.0181 72.6016L70.3762 71.4596L68.7343 70.3176C68.3075 70.9311 67.4621 71.9505 66.1307 73.4196L67.6126 74.7627ZM70.3762 71.4596L72.0338 72.5785L72.7227 71.5581L71.065 70.4391L69.4073 69.3202L68.7185 70.3406L70.3762 71.4596ZM71.065 70.4391L72.4862 71.8463L72.5565 71.7753L71.1353 70.3681L69.7141 68.9609L69.6438 69.0319L71.065 70.4391Z" fill="#532F07"/>
</svg>
