<svg width="50" height="50" viewBox="0 0 50 50" fill="none" xmlns="http://www.w3.org/2000/svg">
<circle cx="25" cy="25" r="25" fill="#FB5012"/>
<path d="M29.0608 29.4105L29.9141 28.9755C30.1274 28.8668 30.4474 28.9755 30.6608 29.193L31.8341 31.5853C32.1541 32.129 32.6874 32.4542 33.2208 32.4542C33.4341 32.4542 33.7541 32.3454 33.9663 32.2367C34.713 31.8017 35.033 30.8241 34.713 30.0618L33.5397 27.6717C33.1141 26.8017 32.3674 26.0405 31.4063 25.7143C30.4474 25.3881 29.4875 25.4968 28.5275 25.9318L26.1819 27.128L23.3019 28.6493C23.0886 28.758 22.8753 28.758 22.6619 28.5405L21.062 26.9094C20.4231 26.2569 19.462 26.2569 18.8231 26.9094C18.1831 27.5618 18.1831 28.5405 18.8231 29.193L20.4231 30.8241C21.5953 32.0192 23.3019 32.2367 24.6886 31.5842L26.1819 30.8241L27.3541 32.999L24.2619 35.0629C23.6219 35.499 23.1953 36.0427 22.8753 36.694L21.4886 40.6099C21.1686 41.4798 21.4886 42.3498 22.3419 42.7847C22.5553 42.8935 22.7686 42.8935 22.9819 42.8935C23.6219 42.8935 24.1553 42.5673 24.4753 41.9148L25.8619 38C25.8655 37.9436 25.8891 37.8903 25.9284 37.8503C25.9676 37.8103 26.0198 37.7862 26.0752 37.7826L28.6341 36.0438L28.8475 36.6962C29.3808 38.2175 30.7674 39.1962 32.3674 39.1962C32.6874 39.1962 33.0074 39.1962 33.3263 39.0875L35.7796 38.435C36.633 38.2175 37.1663 37.3476 36.953 36.4788C36.9042 36.2716 36.8158 36.0762 36.6928 35.9039C36.5698 35.7316 36.4147 35.5857 36.2364 35.4746C36.058 35.3635 35.86 35.2893 35.6534 35.2564C35.4469 35.2234 35.2361 35.2323 35.033 35.2826L32.5808 35.935C32.3674 36.0438 32.0474 35.8263 31.9408 35.6088L31.7274 34.9564M19.721 19.0011C19.0485 19.0019 18.3932 19.2187 17.8484 19.6207C17.3036 20.0227 16.8969 20.5895 16.686 21.2405C16.4751 21.8916 16.4708 22.5939 16.6737 23.2476C16.8766 23.9013 17.2764 24.4732 17.8163 24.8821M19.6154 34.7378L18.9755 35.1727C18.3355 35.6077 17.9088 36.1503 17.5888 36.8039L16.2021 40.7175C15.8821 41.5875 16.2021 42.4563 17.0555 42.8924C17.2688 43 17.4821 43 17.6955 43C18.0155 43 18.3355 42.8913 18.5488 42.6738M15.7189 26.9094C15.08 26.2569 14.1189 26.2569 13.48 26.9094C12.84 27.5618 12.84 28.5405 13.48 29.193L15.08 30.8241C15.7189 31.4755 16.68 31.9116 17.5322 31.9116M24.6276 25.5246C25.4763 25.5246 26.2902 25.1809 26.8904 24.5691C27.4905 23.9573 27.8276 23.1275 27.8276 22.2623C27.8276 21.3971 27.4905 20.5673 26.8904 19.9555C26.2902 19.3437 25.4763 19 24.6276 19C23.779 19 22.965 19.3437 22.3649 19.9555C21.7648 20.5673 21.4277 21.3971 21.4277 22.2623C21.4277 23.1275 21.7648 23.9573 22.3649 24.5691C22.965 25.1809 23.779 25.5246 24.6276 25.5246Z" stroke="#A3E7FC" stroke-width="2" stroke-miterlimit="10" stroke-linecap="round" stroke-linejoin="round"/>
<path d="M39.6048 20.7138C40.2206 20.6 40.7361 20.3023 41.1511 19.821L40.0523 19.2356C39.8194 19.4175 39.5539 19.5226 39.2555 19.5509C38.9572 19.5791 38.6758 19.5226 38.4112 19.3812C38.1466 19.2398 37.9427 19.0376 37.7995 18.7746C37.6564 18.5116 37.5953 18.2328 37.6163 17.938L36.5175 17.3527C36.3496 17.9657 36.3902 18.5595 36.6393 19.1341C36.8884 19.7087 37.291 20.1441 37.847 20.4403C38.403 20.7365 38.989 20.8276 39.6048 20.7138ZM38.3735 17.0756C38.5696 17.0155 38.717 16.8928 38.8157 16.7074C38.9144 16.5221 38.9339 16.3312 38.874 16.1348C38.8141 15.9384 38.6915 15.7911 38.5064 15.6929C38.3212 15.5947 38.1303 15.5753 37.9337 15.6346C37.7371 15.694 37.5898 15.8165 37.4918 16.0022C37.3938 16.1879 37.3744 16.3788 37.4336 16.5749C37.4927 16.7709 37.6153 16.9182 37.8012 17.0168C37.987 17.1153 38.1776 17.1353 38.3735 17.0756ZM41.2864 18.6265C41.482 18.5671 41.6293 18.4446 41.7283 18.2589C41.8272 18.0732 41.8466 17.8823 41.7865 17.6863C41.7264 17.4902 41.6039 17.3429 41.4189 17.2443C41.2339 17.1458 41.043 17.1264 40.8463 17.1861C40.6495 17.2458 40.5022 17.3683 40.4044 17.5537C40.3065 17.7391 40.2871 17.9299 40.3461 18.1263C40.4051 18.3227 40.5276 18.47 40.7137 18.5682C40.8998 18.6664 41.0907 18.6859 41.2864 18.6265ZM36.2955 23.3528L35.8803 22.2819C35.4026 21.0303 35.0229 19.967 34.7413 19.0919C34.4597 18.2167 34.2667 17.4624 34.1622 16.8289C34.0578 16.1954 34.0383 15.6526 34.1039 15.2003C34.1694 14.748 34.3101 14.3187 34.5261 13.9126C34.968 13.0829 35.6151 12.5382 36.4673 12.2783C37.3195 12.0185 38.1604 12.1095 38.9901 12.5515C39.449 12.7959 39.8342 13.1257 40.1456 13.5409C40.457 13.956 40.6687 14.42 40.7807 14.9329C41.2688 14.7397 41.772 14.6565 42.2903 14.6833C42.8085 14.7101 43.2971 14.8457 43.7561 15.0902C44.5857 15.5322 45.1304 16.1792 45.3903 17.0315C45.6501 17.8837 45.5591 18.7246 45.1172 19.5542C44.9009 19.9602 44.6234 20.3166 44.2846 20.6233C43.9458 20.9301 43.4842 21.2167 42.8999 21.4833C42.3156 21.7499 41.5819 22.0105 40.6988 22.2653C39.8158 22.5201 38.7215 22.7983 37.416 23.0999L36.2955 23.3528ZM37.0572 21.923C38.2947 21.6418 39.3234 21.391 40.1433 21.1706C40.9632 20.9502 41.6365 20.7283 42.1634 20.505C42.6902 20.2816 43.0966 20.0506 43.3824 19.8117C43.6683 19.5729 43.8935 19.299 44.058 18.9901C44.3401 18.4605 44.3987 17.9252 44.2337 17.3841C44.0687 16.843 43.7214 16.4314 43.1919 16.1493C42.7771 15.9284 42.3308 15.8409 41.8531 15.8869C41.3754 15.9329 40.974 16.1014 40.6491 16.3924L39.6429 15.8564C39.7033 15.424 39.6192 14.997 39.3907 14.5752C39.1621 14.1534 38.8405 13.8319 38.4259 13.6106C37.8963 13.3285 37.361 13.2699 36.8199 13.4349C36.2788 13.5999 35.8672 13.9472 35.5852 14.4767C35.4206 14.7856 35.319 15.1253 35.2802 15.4958C35.2415 15.8663 35.2765 16.3325 35.3851 16.8943C35.4937 17.4561 35.6853 18.1387 35.9598 18.9421C36.2343 19.7455 36.6001 20.7391 37.0572 21.923Z" fill="#A3E7FC"/>
<path d="M26.68 12.0431C27.17 11.6458 27.485 11.1315 27.625 10.5H26.38C26.26 10.775 26.075 10.9966 25.825 11.1649C25.575 11.3331 25.3 11.4171 25 11.4167C24.7 11.4163 24.425 11.3321 24.175 11.1643C23.925 10.9964 23.74 10.775 23.62 10.5H22.375C22.515 11.1315 22.83 11.6458 23.32 12.0431C23.81 12.4403 24.37 12.6389 25 12.6389C25.63 12.6389 26.19 12.4403 26.68 12.0431ZM23.8828 9.36211C24.0276 9.21422 24.1 9.03333 24.1 8.81944C24.1 8.60556 24.0274 8.42467 23.8822 8.27678C23.737 8.12889 23.5596 8.05515 23.35 8.05556C23.1404 8.05596 22.9628 8.12991 22.8172 8.27739C22.6716 8.42487 22.5992 8.60556 22.6 8.81944C22.6008 9.03333 22.6734 9.21422 22.8178 9.36211C22.9622 9.51 23.1396 9.58374 23.35 9.58333C23.5604 9.58293 23.738 9.50959 23.8828 9.36211ZM27.1828 9.3615C27.3276 9.21443 27.4 9.03374 27.4 8.81944C27.4 8.60515 27.3274 8.42426 27.1822 8.27678C27.037 8.1293 26.8596 8.05556 26.65 8.05556C26.4404 8.05556 26.2628 8.1295 26.1172 8.27739C25.9716 8.42528 25.8992 8.60596 25.9 8.81944C25.9008 9.03293 25.9734 9.21381 26.1178 9.36211C26.2622 9.51041 26.4396 9.58415 26.65 9.58333C26.8604 9.58252 27.038 9.50857 27.1828 9.3615ZM25 16L24.13 15.2361C23.12 14.3398 22.285 13.5657 21.625 12.9139C20.965 12.262 20.44 11.6764 20.05 11.1569C19.66 10.6375 19.3876 10.1588 19.2328 9.72083C19.078 9.28287 19.0004 8.82963 19 8.36111C19 7.4037 19.315 6.60417 19.945 5.9625C20.575 5.32083 21.36 5 22.3 5C22.82 5 23.315 5.11204 23.785 5.33611C24.255 5.56019 24.66 5.87593 25 6.28333C25.34 5.87593 25.745 5.56019 26.215 5.33611C26.685 5.11204 27.18 5 27.7 5C28.64 5 29.425 5.32083 30.055 5.9625C30.685 6.60417 31 7.4037 31 8.36111C31 8.82963 30.9226 9.28287 30.7678 9.72083C30.613 10.1588 30.3404 10.6375 29.95 11.1569C29.5596 11.6764 29.0346 12.262 28.375 12.9139C27.7154 13.5657 26.8804 14.3398 25.87 15.2361L25 16Z" fill="#A3E7FC"/>
</svg>
