<svg width="100" height="100" viewBox="0 0 100 100" fill="none" xmlns="http://www.w3.org/2000/svg">
<circle cx="50" cy="50" r="50" fill="#FFB3DE"/>
<path d="M15.6583 21.0281C15.7185 23.2263 16.171 28.6592 17.869 32.0365C19.2236 34.7306 22.2146 36.3413 25.4239 37.1924C26.6596 37.52 29.3119 37.2388 34.5124 36.3941C47.4737 34.2889 50.5282 30.7257 53.1868 28.4318C55.3898 26.5311 55.5662 23.8119 55.115 18.7455C55.0193 17.6704 54.4441 17.3911 53.9901 17.1849C53.1024 16.7816 51.9829 16.8087 50.8641 17.0313C49.5981 17.2831 48.8721 18.2652 48.4188 19.0731C46.9263 21.7337 48.7344 25.9327 50.7068 28.7475C51.4543 29.8142 52.4563 30.3701 53.3586 30.8649C55.9706 32.2969 65.4829 32.0319 70.3969 31.1408C75.6973 30.1797 77.3891 24.7573 79.2411 22.8989C80.7097 20.0903 81.5149 16.8602 81.4352 15.5825C81.36 15.0234 81.2146 14.6456 81.0531 14.0622" stroke="#FB5012" stroke-width="4" stroke-linecap="round"/>
<path d="M19.5268 52.1685C18.5567 51.6403 17.3421 51.9986 16.8139 52.9686C16.2857 53.9387 16.644 55.1533 17.614 55.6815L18.5704 53.925L19.5268 52.1685ZM18.6583 53.9729L20.5017 53.1971L20.2299 52.5514L19.6147 52.2163L18.6583 53.9729ZM29.5149 60.1297L29.2674 58.1451L29.5149 60.1297ZM35.0025 58.3121L34.0315 56.5636L35.0025 58.3121ZM38.8704 51.4314L40.5547 52.5099L40.6639 52.3394L40.7366 52.1506L38.8704 51.4314ZM38.9165 51.3119L37.5653 49.8373L37.2191 50.1546L37.0502 50.5928L38.9165 51.3119ZM40.3414 52.7189C41.1557 51.9727 41.211 50.7075 40.4647 49.8932C39.7185 49.0788 38.4534 49.0235 37.639 49.7698L38.9902 51.2443L40.3414 52.7189ZM18.5704 53.925L17.614 55.6815L17.7019 55.7294L18.6583 53.9729L19.6147 52.2163L19.5268 52.1685L18.5704 53.925ZM18.6583 53.9729L16.8148 54.7486C18.3015 58.2814 20.3365 61.0449 23.2776 61.7409L23.7382 59.7946L24.1988 57.8484C23.2454 57.6228 21.8938 56.5051 20.5017 53.1971L18.6583 53.9729ZM23.7382 59.7946L23.2776 61.7409C25.4466 62.2541 27.612 62.3825 29.7623 62.1144L29.5149 60.1297L29.2674 58.1451C27.61 58.3517 25.9242 58.2567 24.1988 57.8484L23.7382 59.7946ZM29.5149 60.1297L29.7623 62.1144C31.9319 61.8438 34.0056 61.1534 35.9735 60.0606L35.0025 58.3121L34.0315 56.5636C32.4903 57.4195 30.9056 57.9408 29.2674 58.1451L29.5149 60.1297ZM35.0025 58.3121L35.9735 60.0606C38.1625 58.8449 39.6399 57.0356 40.1485 54.6518L38.1925 54.2345L36.2365 53.8172C36.0009 54.9214 35.3516 55.8305 34.0315 56.5636L35.0025 58.3121ZM38.1925 54.2345L40.1485 54.6518C40.3333 53.7853 40.4784 53.1366 40.585 52.6959C40.6388 52.4732 40.6783 52.3228 40.7046 52.2316C40.7182 52.1847 40.7224 52.174 40.7179 52.1865C40.7156 52.193 40.7057 52.2207 40.6882 52.261C40.6757 52.2897 40.6324 52.3886 40.5547 52.5099L38.8704 51.4314L37.1861 50.353C37.041 50.5795 36.9652 50.8011 36.9493 50.8458C36.9157 50.9401 36.8863 51.0365 36.8616 51.1219C36.8115 51.2955 36.7562 51.5111 36.6971 51.7556C36.5777 52.2493 36.4237 52.9397 36.2365 53.8172L38.1925 54.2345ZM38.8704 51.4314L40.7366 52.1506L40.7827 52.031L38.9165 51.3119L37.0502 50.5928L37.0042 50.7123L38.8704 51.4314ZM38.9165 51.3119L40.2676 52.7865L40.3414 52.7189L38.9902 51.2443L37.639 49.7698L37.5653 49.8373L38.9165 51.3119Z" fill="#FB5012"/>
<path d="M65.1605 45.9242C64.1904 45.396 62.9758 45.7542 62.4476 46.7243C61.9194 47.6944 62.2776 48.909 63.2477 49.4372L64.2041 47.6807L65.1605 45.9242ZM64.2919 47.7285L66.1222 46.9223L65.8473 46.2982L65.2483 45.972L64.2919 47.7285ZM83.7975 47.8969L81.8612 47.3962L83.7975 47.8969ZM84.5514 45.1306L86.3007 46.1003L86.5623 45.6283L86.551 45.0888L84.5514 45.1306ZM84.5501 45.0676L83.1989 43.593L82.5316 44.2045L82.5505 45.1094L84.5501 45.0676ZM85.975 46.4746C86.7894 45.7283 86.8446 44.4632 86.0984 43.6488C85.3522 42.8345 84.087 42.7792 83.2727 43.5254L84.6238 45L85.975 46.4746ZM64.2041 47.6807L63.2477 49.4372L63.3355 49.485L64.2919 47.7285L65.2483 45.972L65.1605 45.9242L64.2041 47.6807ZM64.2919 47.7285L62.4616 48.5347C63.9912 52.0075 66.0289 54.7016 68.8917 55.4508L69.398 53.5159L69.9043 51.5811C68.9136 51.3218 67.5473 50.1577 66.1222 46.9223L64.2919 47.7285ZM69.398 53.5159L68.8917 55.4508C71.0605 56.0183 73.2371 56.1629 75.4069 55.872L75.1411 53.8897L74.8754 51.9075C73.2411 52.1266 71.589 52.0219 69.9043 51.5811L69.398 53.5159ZM75.1411 53.8897L75.4069 55.872C77.5769 55.5811 79.6317 54.869 81.5595 53.7494L80.5551 52.0199L79.5506 50.2904C78.0639 51.1539 76.5094 51.6884 74.8754 51.9075L75.1411 53.8897ZM80.5551 52.0199L81.5595 53.7494C83.6843 52.5153 85.1331 50.7205 85.7338 48.3976L83.7975 47.8969L81.8612 47.3962C81.5531 48.5875 80.8403 49.5414 79.5506 50.2904L80.5551 52.0199ZM83.7975 47.8969L85.7338 48.3976C85.9604 47.5214 86.1342 46.8617 86.2564 46.4134C86.3179 46.1878 86.3634 46.0263 86.3945 45.9217C86.4104 45.8679 86.4185 45.8428 86.4204 45.8373C86.4215 45.834 86.4165 45.8491 86.4066 45.8748C86.4051 45.8788 86.3684 45.9781 86.3007 46.1003L84.5514 45.1306L82.8022 44.161C82.6913 44.361 82.6278 44.5659 82.6272 44.5675C82.6043 44.636 82.5813 44.711 82.5598 44.7833C82.516 44.931 82.4613 45.1262 82.3971 45.3616C82.268 45.8354 82.089 46.5153 81.8612 47.3962L83.7975 47.8969ZM84.5514 45.1306L86.551 45.0888L86.5497 45.0258L84.5501 45.0676L82.5505 45.1094L82.5519 45.1724L84.5514 45.1306ZM84.5501 45.0676L85.9013 46.5421L85.975 46.4746L84.6238 45L83.2727 43.5254L83.1989 43.593L84.5501 45.0676Z" fill="#FB5012"/>
<path d="M52.2171 55.5647C52.7789 54.6137 52.4634 53.3873 51.5124 52.8255C50.5614 52.2637 49.335 52.5792 48.7732 53.5302L50.4951 54.5475L52.2171 55.5647ZM50.4443 54.6336L52.1368 55.699L52.1519 55.6751L52.1662 55.6508L50.4443 54.6336ZM45.7217 62.1085L44.0343 61.0349L45.7217 62.1085ZM44.4157 65.8833L42.4681 66.3381L44.4157 65.8833ZM47.6372 66.5517L47.2411 64.5913L47.6372 66.5517ZM57.141 63.6345L57.0125 61.6386L56.9943 61.6398L56.9762 61.6413L57.141 63.6345ZM58.0517 63.5759L58.1803 65.5717L58.3655 65.5598L58.5454 65.514L58.0517 63.5759ZM58.6423 65.4893C59.7127 65.2166 60.3594 64.1279 60.0867 63.0575C59.8141 61.9871 58.7253 61.3404 57.6549 61.6131L58.1486 63.5512L58.6423 65.4893ZM50.4951 54.5475L48.7732 53.5302L48.7223 53.6163L50.4443 54.6336L52.1662 55.6508L52.2171 55.5647L50.4951 54.5475ZM50.4443 54.6336L48.7517 53.5681C46.6706 56.8741 45.0985 59.3625 44.0343 61.0349L45.7217 62.1085L47.4091 63.1822C48.4786 61.5014 50.0549 59.0064 52.1368 55.699L50.4443 54.6336ZM45.7217 62.1085L44.0343 61.0349C43.4539 61.947 42.992 62.8263 42.705 63.6558C42.4259 64.4627 42.2495 65.4018 42.4681 66.3381L44.4157 65.8833L46.3633 65.4285C46.3858 65.5249 46.329 65.4149 46.4852 64.9636C46.6335 64.5348 46.9227 63.9467 47.4091 63.1822L45.7217 62.1085ZM44.4157 65.8833L42.4681 66.3381C42.6113 66.9514 42.9382 67.5081 43.4439 67.9314C43.9243 68.3334 44.4715 68.5369 44.9619 68.6386C45.8983 68.8329 46.9735 68.7262 48.0333 68.5121L47.6372 66.5517L47.2411 64.5913C46.8194 64.6765 46.4839 64.7203 46.225 64.7349C45.9599 64.75 45.8213 64.7317 45.7745 64.722C45.728 64.7124 45.848 64.7274 46.0109 64.8637C46.1992 65.0212 46.3182 65.2352 46.3633 65.4285L44.4157 65.8833ZM47.6372 66.5517L48.0333 68.5121C50.1054 68.0934 52.1268 67.4872 54.096 66.6943L53.3489 64.8391L52.6019 62.9838C50.8585 63.6858 49.0721 64.2214 47.2411 64.5913L47.6372 66.5517ZM53.3489 64.8391L54.096 66.6943C55.9998 65.9277 56.9853 65.6542 57.3059 65.6277L57.141 63.6345L56.9762 61.6413C55.9532 61.7259 54.4106 62.2555 52.6019 62.9838L53.3489 64.8391ZM57.141 63.6345L57.2695 65.6304L58.1803 65.5717L58.0517 63.5759L57.9232 61.58L57.0125 61.6386L57.141 63.6345ZM58.0517 63.5759L58.5454 65.514L58.6423 65.4893L58.1486 63.5512L57.6549 61.6131L57.558 61.6377L58.0517 63.5759Z" fill="#FB5012"/>
<path d="M37.8436 70.9501C36.921 70.3429 35.6807 70.5986 35.0735 71.5213C34.4663 72.444 34.722 73.6842 35.6447 74.2915L36.7442 72.6208L37.8436 70.9501ZM36.8277 72.6757L35.7283 74.3464L36.0815 74.5789L36.4987 74.6485L36.8277 72.6757ZM64.4015 82.8391L65.2839 84.634L64.4015 82.8391ZM68.6304 78.7928L66.8726 77.8388L68.6304 78.7928ZM69.7285 72.1633L71.7158 71.9383L71.7116 71.9008L71.7059 71.8635L69.7285 72.1633ZM69.5497 70.984L67.6738 70.2906L67.4951 70.7741L67.5723 71.2837L69.5497 70.984ZM71.4604 71.5835C71.8433 70.5474 71.3138 69.3971 70.2777 69.0142C69.2417 68.6313 68.0913 69.1607 67.7084 70.1968L69.5844 70.8902L71.4604 71.5835ZM36.7442 72.6208L35.6447 74.2915L35.7283 74.3464L36.8277 72.6757L37.9272 71.0051L37.8436 70.9501L36.7442 72.6208ZM36.8277 72.6757L36.4987 74.6485C40.2312 75.2711 42.3888 76.1399 43.4054 77.0045L44.7012 75.4811L45.997 73.9576C44.1041 72.3477 41.0127 71.3462 37.1568 70.703L36.8277 72.6757ZM44.7012 75.4811L43.4054 77.0045C44.647 78.0606 45.6831 79.377 46.5073 80.9804L48.2861 80.066L50.0648 79.1517C49.0186 77.1164 47.6648 75.3762 45.997 73.9576L44.7012 75.4811ZM48.2861 80.066L46.5073 80.9804C47.7274 83.354 49.7251 84.8283 52.3515 85.2638L52.6787 83.2908L53.0058 81.3177C51.6458 81.0922 50.7151 80.4167 50.0648 79.1517L48.2861 80.066ZM52.6787 83.2908L52.3515 85.2638C54.4061 85.6045 56.4588 85.8465 58.5095 85.9895L58.6487 83.9944L58.7878 81.9992C56.8649 81.8651 54.9376 81.638 53.0058 81.3177L52.6787 83.2908ZM58.6487 83.9944L58.5095 85.9895C60.8609 86.1536 63.1299 85.6929 65.2839 84.634L64.4015 82.8391L63.5191 81.0443C61.9762 81.8029 60.41 82.1124 58.7878 81.9992L58.6487 83.9944ZM64.4015 82.8391L65.2839 84.634C67.4994 83.5447 69.2172 81.9044 70.3882 79.7467L68.6304 78.7928L66.8726 77.8388C66.1019 79.2587 65.0005 80.316 63.5191 81.0443L64.4015 82.8391ZM68.6304 78.7928L70.3882 79.7467C70.907 78.7908 71.318 77.8984 71.5918 77.0826C71.8583 76.2887 72.0393 75.4389 71.9732 74.6133L69.9796 74.7729L67.986 74.9325C67.9912 74.998 67.983 75.2637 67.7997 75.8098C67.6238 76.3339 67.3246 77.0058 66.8726 77.8388L68.6304 78.7928ZM69.9796 74.7729L71.9732 74.6133C71.9002 73.7015 71.8145 72.8098 71.7158 71.9383L69.7285 72.1633L67.7412 72.3882C67.8347 73.2142 67.9163 74.0623 67.986 74.9325L69.9796 74.7729ZM69.7285 72.1633L71.7059 71.8635L71.5271 70.6842L69.5497 70.984L67.5723 71.2837L67.7511 72.463L69.7285 72.1633ZM69.5497 70.984L71.4257 71.6773L71.4604 71.5835L69.5844 70.8902L67.7084 70.1968L67.6738 70.2906L69.5497 70.984Z" fill="#FB5012"/>
</svg>
