<svg width="40" height="40" viewBox="0 0 40 40" fill="none" xmlns="http://www.w3.org/2000/svg">
<circle cx="20" cy="20" r="20" fill="#FB5012"/>
<g filter="url(#filter0_di_9_200)">
<path d="M10.6 20.6739C10.7206 21.139 10.7338 21.5553 10.6394 21.9228C10.5489 22.2893 10.3783 22.612 10.1278 22.8908C9.88108 23.1687 9.58044 23.4021 9.22586 23.5909C8.87129 23.7797 8.48982 23.9271 8.08146 24.033C7.76763 24.1144 7.45113 24.1622 7.13197 24.1764L7.2835 24.7606C7.33058 24.9421 7.40979 25.0608 7.52113 25.1166C7.63248 25.1725 7.75551 25.2112 7.89024 25.2328C8.02399 25.2505 8.148 25.293 8.26229 25.3602C8.37657 25.4274 8.45971 25.5612 8.51169 25.7616C8.56759 25.9772 8.54591 26.1503 8.44663 26.2809C8.35114 26.4106 8.2013 26.502 7.99712 26.5549L4.88904 27.3611C4.68864 27.4131 4.5133 27.4061 4.36303 27.3402C4.21177 27.2705 4.10868 27.1297 4.05375 26.918C4.00373 26.7252 4.00427 26.5717 4.05538 26.4575C4.1055 26.3396 4.17376 26.2371 4.26016 26.1502C4.34655 26.0632 4.41726 25.9702 4.47229 25.8712C4.52732 25.7721 4.53423 25.6432 4.49304 25.4844L3.41907 21.3441C3.3769 21.1815 3.3077 21.0703 3.21148 21.0105C3.11428 20.947 3.00679 20.8982 2.88901 20.8642C2.77123 20.8301 2.66226 20.7757 2.56212 20.7008C2.46198 20.6259 2.38739 20.4939 2.33835 20.3048C2.28343 20.0931 2.3056 19.9219 2.40488 19.7912C2.50317 19.6567 2.65252 19.5635 2.85292 19.5115L5.80219 18.7465C6.27483 18.6239 6.76071 18.5524 7.25983 18.5319C7.76273 18.5104 8.24072 18.5639 8.69378 18.6926C9.14586 18.8175 9.54054 19.0399 9.87781 19.36C10.2151 19.6801 10.4558 20.1181 10.6 20.6739ZM7.89521 21.2847C7.78438 20.8575 7.56251 20.5155 7.22959 20.2588C6.89666 20.0022 6.50516 19.9241 6.05506 20.0248L6.86421 23.1442C6.90679 23.1372 6.94887 23.1283 6.99046 23.1175C7.42907 23.0037 7.71551 22.77 7.84977 22.4164C7.98403 22.0627 7.99917 21.6855 7.89521 21.2847ZM11.6062 24.2265C11.516 23.8786 11.5223 23.5683 11.625 23.2955C11.7268 23.0189 11.89 22.7768 12.1146 22.5692C12.342 22.3569 12.601 22.1807 12.8916 22.0408C13.1822 21.9008 13.4692 21.7941 13.7528 21.7205C13.836 21.6989 13.9216 21.6788 14.0095 21.66C14.0965 21.6374 14.1835 21.6229 14.2706 21.6165L13.8881 20.1418C13.8636 20.0473 13.8144 19.9431 13.7404 19.8291C13.6702 19.7141 13.5746 19.6723 13.4536 19.7037C13.3364 19.7341 13.2754 19.8024 13.2707 19.9085C13.2688 20.0099 13.2791 20.1041 13.3016 20.1911C13.3114 20.2289 13.3217 20.2686 13.3325 20.3102C13.3461 20.347 13.3583 20.3862 13.3691 20.4278C13.4701 20.8173 13.407 21.1262 13.1797 21.3547C12.9515 21.5793 12.6653 21.7363 12.3212 21.8255C12.0339 21.9001 11.7676 21.9005 11.5225 21.8269C11.2774 21.7532 11.1127 21.5538 11.0284 21.2287C10.995 21.1001 10.9872 20.969 11.005 20.8352C11.0266 20.7005 11.0648 20.5756 11.1197 20.4604C11.2777 20.1208 11.5116 19.8321 11.8212 19.5944C12.1346 19.3558 12.4772 19.1599 12.8492 19.007C13.2239 18.8492 13.5815 18.7262 13.9218 18.638C14.3074 18.5379 14.6752 18.501 15.025 18.5273C15.3749 18.5536 15.6795 18.6703 15.9391 18.8774C16.1976 19.0807 16.3828 19.3979 16.4946 19.8289L17.1728 22.4436C17.1895 22.5079 17.2193 22.5606 17.2623 22.602C17.3053 22.6433 17.3628 22.6546 17.4346 22.636C17.4913 22.6213 17.5342 22.592 17.5632 22.5481C17.5949 22.4995 17.6392 22.4679 17.6959 22.4532C17.8056 22.4247 17.8967 22.4415 17.9692 22.5033C18.0455 22.5643 18.0969 22.6458 18.1234 22.7478C18.1921 23.0125 18.1701 23.2624 18.0576 23.4974C17.9478 23.7276 17.7866 23.9228 17.5738 24.0829C17.3621 24.2468 17.1353 24.3601 16.8933 24.4229C16.6097 24.4964 16.3061 24.5086 15.9826 24.4593C15.6629 24.4091 15.4139 24.2659 15.2356 24.0296C15.1124 24.3481 14.8987 24.6134 14.5945 24.8254C14.2932 25.0327 13.9818 25.1781 13.6604 25.2615C13.3655 25.338 13.0752 25.3547 12.7897 25.3118C12.5069 25.264 12.2596 25.1506 12.0477 24.9715C11.8358 24.7925 11.6886 24.5441 11.6062 24.2265ZM14.0347 23.0639C14.0739 23.2151 14.1471 23.3495 14.2543 23.467C14.3604 23.5807 14.5005 23.615 14.6744 23.5699C14.7084 23.561 14.7396 23.5489 14.7679 23.5335L14.4634 22.3595C14.3922 22.3497 14.3226 22.3536 14.2545 22.3713C14.1109 22.4085 14.0312 22.5059 14.0155 22.6633C13.9989 22.8169 14.0053 22.9504 14.0347 23.0639ZM20.7046 23.4342C20.3454 23.5274 20.0213 23.5146 19.7322 23.3959C19.4459 23.2724 19.206 23.0784 19.0122 22.8139C18.8185 22.5494 18.6795 22.2545 18.5951 21.9294L18.0949 20.001C18.0587 19.8611 18.0218 19.7657 17.9844 19.7149C17.946 19.6603 17.8616 19.5994 17.7313 19.5324C17.6285 19.4783 17.5309 19.429 17.4386 19.3843C17.3491 19.3349 17.2877 19.2459 17.2543 19.1173C17.2161 18.9699 17.2334 18.8423 17.3064 18.7346C17.3821 18.6221 17.476 18.5251 17.5881 18.4436L18.7078 17.6265C18.8396 17.5278 18.9733 17.4366 19.109 17.3529C19.2485 17.2683 19.3995 17.205 19.5621 17.1628C19.7172 17.1226 19.8505 17.1465 19.9621 17.2346C20.0728 17.3189 20.1467 17.4329 20.184 17.5765L20.9828 20.6563C21.0103 20.7621 21.0511 20.8726 21.1051 20.9877C21.163 21.1019 21.2391 21.1931 21.3335 21.2614C21.4269 21.326 21.5417 21.3406 21.6778 21.3053C21.8177 21.269 21.9328 21.2069 22.0229 21.1189C22.1121 21.0272 22.1885 20.9246 22.2519 20.8113L21.7929 19.0418C21.7556 18.8981 21.7154 18.7975 21.6723 18.7401C21.6319 18.678 21.5414 18.6167 21.4006 18.5564C21.296 18.5109 21.2032 18.4643 21.1223 18.4167C21.0413 18.3691 20.9846 18.2829 20.9523 18.1581C20.914 18.0107 20.9314 17.8831 21.0043 17.7754C21.0801 17.6629 21.174 17.5659 21.286 17.4844L22.4058 16.6673C22.5375 16.5685 22.6713 16.4774 22.807 16.3937C22.9464 16.3091 23.0975 16.2457 23.2601 16.2036C23.4151 16.1634 23.5479 16.1854 23.6586 16.2697C23.773 16.353 23.8493 16.4684 23.8876 16.6159L24.8586 20.3592C24.886 20.465 24.9173 20.5699 24.9523 20.6738C24.9901 20.773 25.0581 20.8562 25.1563 20.9236C25.2773 21.0011 25.3826 21.0646 25.4721 21.1141C25.5616 21.1635 25.6264 21.2657 25.6666 21.4207C25.7108 21.5909 25.6931 21.7327 25.6135 21.8461C25.534 21.9596 25.411 22.0379 25.2447 22.081L23.9515 22.4165C23.6642 22.491 23.3829 22.449 23.1077 22.2903C22.8362 22.1307 22.6638 21.9091 22.5902 21.6255C22.4342 21.8799 22.2579 22.1334 22.0611 22.3862C21.8644 22.6391 21.6518 22.8617 21.4232 23.0541C21.1975 23.2418 20.958 23.3685 20.7046 23.4342ZM27.7711 16.0686C27.6425 16.1019 27.5345 16.1602 27.4472 16.2434C27.3598 16.3266 27.3352 16.4419 27.3735 16.5894C27.4048 16.7104 27.4572 16.7956 27.5306 16.8452C27.604 16.8948 27.6995 16.9285 27.8172 16.9464C27.9434 16.9662 28.0718 16.9712 28.2024 16.9615C28.3331 16.9518 28.4605 16.945 28.5846 16.9411C28.952 16.9265 29.3106 16.9707 29.6601 17.0737C30.0087 17.173 30.3124 17.3403 30.5713 17.5759C30.8329 17.8066 31.0137 18.1149 31.1138 18.5005C31.2481 19.0185 31.2378 19.4611 31.0828 19.8282C30.9279 20.1952 30.6728 20.4955 30.3177 20.7288C29.9663 20.9612 29.56 21.1372 29.0987 21.2569C28.9815 21.2873 28.815 21.3143 28.5992 21.338C28.3871 21.3607 28.2251 21.3584 28.1131 21.3309L28.1074 21.3324C28.0647 21.3233 27.9969 21.3187 27.9041 21.3186C27.8112 21.3185 27.744 21.3238 27.7024 21.3346C27.5852 21.365 27.4967 21.4363 27.4371 21.5487C27.3784 21.6648 27.2886 21.7385 27.1676 21.7699C27.005 21.8121 26.8627 21.7925 26.7407 21.7111C26.6225 21.6288 26.5202 21.5222 26.4338 21.3912C26.3502 21.2555 26.2733 21.1302 26.2031 21.0152C26.1492 20.9162 26.0919 20.8201 26.0314 20.7268C25.9699 20.6298 25.925 20.5264 25.8965 20.4168C25.8455 20.2202 25.8573 20.0476 25.9318 19.8992C26.0062 19.7507 26.1437 19.6505 26.3441 19.5985C26.5407 19.5475 26.7146 19.5488 26.8657 19.6024C27.0158 19.6523 27.1562 19.7268 27.2869 19.8261C27.4214 19.9244 27.5563 20.0246 27.6917 20.1267C27.83 20.224 27.9841 20.297 28.1541 20.3457C28.3232 20.3907 28.5192 20.3842 28.7423 20.3263C28.8973 20.2861 29.0028 20.2103 29.0587 20.099C29.1135 19.9839 29.1219 19.8526 29.0836 19.7051C29.0287 19.4934 28.9367 19.372 28.8075 19.3409C28.6784 19.3098 28.5206 19.3003 28.334 19.3124C27.9922 19.3324 27.6625 19.3372 27.345 19.3268C27.0313 19.3153 26.7414 19.2634 26.4753 19.171C26.213 19.0776 25.9833 18.9233 25.7862 18.7081C25.5929 18.4919 25.4453 18.1872 25.3433 17.7939C25.2227 17.3289 25.2512 16.9179 25.4291 16.561C25.6059 16.2004 25.8709 15.8996 26.2241 15.6587C26.581 15.4168 26.9618 15.2434 27.3664 15.1384C27.5214 15.0982 27.6741 15.0647 27.8245 15.0377C27.9787 15.0099 28.1359 15.0014 28.2961 15.0123C28.316 15.0111 28.3634 15.015 28.4383 15.0238C28.517 15.0316 28.5938 15.04 28.6688 15.0488C28.7427 15.0538 28.7797 15.0563 28.7797 15.0563C28.9045 15.024 28.9991 14.953 29.0635 14.8435C29.1307 14.7292 29.2267 14.6559 29.3514 14.6235C29.5102 14.5823 29.6436 14.6143 29.7516 14.7195C29.8586 14.8208 29.9484 14.9489 30.0208 15.1036C30.097 15.2574 30.1592 15.3885 30.2076 15.4971C30.2453 15.5801 30.2834 15.6651 30.3221 15.7519C30.3598 15.8349 30.3899 15.9199 30.4125 16.0069C30.4517 16.1581 30.453 16.3111 30.4165 16.4659C30.3828 16.6159 30.277 16.7139 30.0993 16.76C29.9216 16.8061 29.749 16.7863 29.5815 16.7006C29.413 16.6112 29.2401 16.5047 29.0628 16.3812C28.8855 16.2577 28.6923 16.1585 28.4832 16.0836C28.2731 16.0049 28.0357 15.9999 27.7711 16.0686ZM36.6818 15.1131C36.7691 15.4496 36.7351 15.7308 36.5799 15.9568C36.4284 16.1817 36.19 16.3363 35.8648 16.4207L33.5792 17.0136C33.7505 17.3162 33.9766 17.5501 34.2576 17.7153C34.5375 17.8768 34.8874 17.903 35.3071 17.7942C35.4734 17.751 35.6291 17.6743 35.774 17.5641C35.9218 17.4491 36.0552 17.3257 36.1744 17.1939C36.2973 17.0611 36.4048 16.9465 36.4968 16.85C36.5878 16.7497 36.6617 16.6922 36.7184 16.6775C36.828 16.649 36.9177 16.6681 36.9875 16.7348C37.0563 16.7977 37.1034 16.8783 37.1289 16.9766C37.2181 17.3207 37.2153 17.6442 37.1204 17.9473C37.0283 18.2456 36.872 18.5142 36.6514 18.753C36.4347 18.9908 36.1801 19.192 35.8879 19.3566C35.6004 19.524 35.3054 19.6469 35.0029 19.7254C34.4093 19.8794 33.8537 19.8923 33.3362 19.7642C32.8188 19.6362 32.3741 19.3843 32.0022 19.0086C31.6331 18.6281 31.3706 18.1373 31.2147 17.5361C31.048 16.8933 31.0257 16.3018 31.1479 15.7616C31.2739 15.2205 31.5355 14.7592 31.9329 14.3776C32.3294 13.9923 32.8527 13.7153 33.5031 13.5466C33.9531 13.4299 34.3967 13.4056 34.8341 13.4738C35.2752 13.5409 35.6619 13.709 35.9939 13.978C36.326 14.247 36.5553 14.6253 36.6818 15.1131ZM33.2505 16.1666C33.2613 16.2082 33.2721 16.2498 33.2829 16.2914L33.8727 16.1384C34.0164 16.1011 34.1064 16.0435 34.1426 15.9655C34.1779 15.8837 34.1779 15.7747 34.1426 15.6386C34.1191 15.5478 34.0768 15.4317 34.0159 15.2901C33.9549 15.1485 33.8752 15.028 33.7768 14.9284C33.6821 14.8279 33.5724 14.7938 33.4476 14.8261C33.3342 14.8556 33.2557 14.9264 33.2121 15.0385C33.1676 15.1469 33.1465 15.2755 33.1487 15.4242C33.15 15.5692 33.1621 15.7093 33.1851 15.8446C33.2081 15.9799 33.2299 16.0872 33.2505 16.1666Z" fill="#D74713"/>
</g>
<defs>
<filter id="filter0_di_9_200" x="0.0479784" y="7.88248" width="39.7819" height="20.9596" filterUnits="userSpaceOnUse" color-interpolation-filters="sRGB">
<feFlood flood-opacity="0" result="BackgroundImageFix"/>
<feColorMatrix in="SourceAlpha" type="matrix" values="0 0 0 0 0 0 0 0 0 0 0 0 0 0 0 0 0 0 127 0" result="hardAlpha"/>
<feOffset dy="-1"/>
<feGaussianBlur stdDeviation="1.065"/>
<feComposite in2="hardAlpha" operator="out"/>
<feColorMatrix type="matrix" values="0 0 0 0 0.975323 0 0 0 0 0.666651 0 0 0 0 0.666651 0 0 0 0.25 0"/>
<feBlend mode="normal" in2="BackgroundImageFix" result="effect1_dropShadow_9_200"/>
<feBlend mode="normal" in="SourceGraphic" in2="effect1_dropShadow_9_200" result="shape"/>
<feColorMatrix in="SourceAlpha" type="matrix" values="0 0 0 0 0 0 0 0 0 0 0 0 0 0 0 0 0 0 127 0" result="hardAlpha"/>
<feOffset dy="1"/>
<feGaussianBlur stdDeviation="1"/>
<feComposite in2="hardAlpha" operator="arithmetic" k2="-1" k3="1"/>
<feColorMatrix type="matrix" values="0 0 0 0 0.658598 0 0 0 0 0.304583 0 0 0 0 0.176226 0 0 0 1 0"/>
<feBlend mode="normal" in2="shape" result="effect2_innerShadow_9_200"/>
</filter>
</defs>
</svg>
